<?xml version="1.0" encoding="utf-8"?>
<!-- Generator: Adobe Illustrator 23.1.0, SVG Export Plug-In . SVG Version: 6.00 Build 0)  -->
<svg version="1.1" id="Слой_1" xmlns="http://www.w3.org/2000/svg" xmlns:xlink="http://www.w3.org/1999/xlink" x="0px" y="0px"
	 viewBox="0 0 128 128" style="enable-background:new 0 0 128 128;" xml:space="preserve">
<style type="text/css">
	.st0{fill:url(#SVGID_1_);}
	.st1{fill:#FFFFFF;}
</style>
<linearGradient id="SVGID_1_" gradientUnits="userSpaceOnUse" x1="18.7451649" y1="20.7451668" x2="109.2548294" y2="111.254837" gradientTransform="matrix(1 0 0 -1 0 130)">
	<stop  offset="0.0000004" style="stop-color:#15B4FC"/>
	<stop  offset="1" style="stop-color:#04175E"/>
</linearGradient>
<circle class="st0" cx="64" cy="64" r="64"/>
<path class="st1" d="M55.3842506,69.5444489l-4.3625717,20.5903778C50.9154625,90.6407928,50.4693604,91,49.9537354,91H39.6604767
	c-0.6913643,0-1.2108536-0.6392212-1.0660133-1.3151398l7.9545784-37.4284401
	c0.0830421-0.3843079,0.4229279-0.6604691,0.8168945-0.6604691h10.8166046c0.5310822,0,0.9250412,0.4905243,0.8149643,1.0080833
	l-1.6994514,7.9256134h18.9952126c0.6932983,0,1.2108536,0.639225,1.0660172,1.3190041l-1.4522552,6.8325615
	c-0.1062164,0.5021057-0.5503922,0.8632355-1.0660248,0.8632355H55.3842506z M47.7000351,46.603817l1.8384933-8.7367134
	C49.6447449,37.3611336,50.090847,37,50.606472,37h37.7316322c0.693306,0,1.2108612,0.6372948,1.067955,1.3151398
	l-1.774765,8.4277267c-0.1042862,0.5040398-0.5503998,0.8671074-1.0660248,0.8671074H48.5149918
	C47.9858475,47.6099739,47.5899506,47.1213799,47.7000351,46.603817"/>
<g>
</g>
<g>
</g>
<g>
</g>
<g>
</g>
<g>
</g>
<g>
</g>
</svg>
